<svg t="1599644411352" class="icon" viewBox="0 0 1024 1024" version="1.1" xmlns="http://www.w3.org/2000/svg" p-id="5791" width="200" height="200"><path d="M501.76 30.72C337.92 30.72 204.8 163.84 204.8 330.24c0 163.84 161.28 371.2 299.52 540.16C640 698.88 803.84 496.64 803.84 330.24 801.28 163.84 668.16 30.72 501.76 30.72z m0 496.64c-110.08 0-197.12-89.6-197.12-197.12C304.64 220.16 394.24 133.12 501.76 133.12c110.08 0 197.12 89.6 197.12 197.12C701.44 440.32 611.84 527.36 501.76 527.36z" fill="#F85B82" p-id="5792"></path><path d="M389.12 330.24c0 30.72 12.8 58.88 33.28 79.36s51.2 33.28 79.36 33.28c30.72 0 58.88-12.8 79.36-33.28s33.28-51.2 33.28-79.36c0-30.72-12.8-58.88-33.28-79.36s-51.2-33.28-79.36-33.28c-30.72 0-58.88 12.8-79.36 33.28S389.12 299.52 389.12 330.24zM504.32 1000.96C312.32 1000.96 117.76 939.52 117.76 824.32c0-64 64-117.76 176.64-151.04 20.48-5.12 40.96 5.12 46.08 25.6s-5.12 40.96-25.6 46.08c-84.48 23.04-122.88 56.32-122.88 79.36 0 40.96 122.88 102.4 314.88 102.4s314.88-61.44 314.88-102.4c0-23.04-46.08-58.88-130.56-81.92-20.48-5.12-30.72-25.6-25.6-46.08s25.6-30.72 46.08-25.6c117.76 30.72 186.88 87.04 186.88 153.6-7.68 115.2-202.24 176.64-394.24 176.64z" fill="#F85B82" p-id="5793"></path></svg>