<svg t="1599642769467" class="icon" viewBox="0 0 1024 1024" version="1.1" xmlns="http://www.w3.org/2000/svg" p-id="7498" width="200" height="200"><path d="M624.128 424.448c-22.528 0-33.792 9.728-33.792 29.184V512c0 19.456 11.264 29.184 33.792 29.184 22.528 0 33.792-9.728 33.792-29.184v-58.368c0-19.456-11.264-29.184-33.792-29.184z m-224.256 0c-22.528 0-33.792 9.728-33.792 29.184V512c0 19.456 11.264 29.184 33.792 29.184s33.792-9.728 33.792-29.184v-58.368c-0.512-19.456-11.776-29.184-33.792-29.184zM153.6 856.064L115.2 934.4c-11.264 13.312-13.824 32.256-6.144 48.128s23.552 26.112 40.96 26.112H512c273.92 0 496.64-222.72 496.64-496.64S785.92 15.36 512 15.36 15.36 238.08 15.36 512c0 128 49.152 251.392 138.24 344.064z m64.512 79.872c18.944-46.592 22.016-95.232-12.288-130.56C130.048 726.528 87.552 621.056 87.552 512c0-233.984 189.952-423.936 423.936-423.936S935.424 278.016 935.424 512 745.472 935.936 511.488 935.936H218.112zM512 719.872c32.768 0 64-16.384 84.992-44.544 3.584-4.608 3.072-11.264-1.024-14.848-1.536-1.536-3.584-2.56-6.144-2.56s-5.632 1.536-7.168 3.584c-17.92 23.552-44.032 37.376-71.168 37.376-27.648 0-53.248-13.312-71.168-37.376-2.048-2.56-4.608-3.584-7.168-3.584-2.048 0-4.096 1.024-6.144 2.56-2.048 2.048-3.072 4.608-3.072 7.168 0 2.56 0.512 5.632 2.048 7.68C448 704 479.232 719.872 512 719.872z" p-id="7499" fill="#F85B82"></path></svg>