<svg t="1599643139187" class="icon" viewBox="0 0 1024 1024" version="1.1" xmlns="http://www.w3.org/2000/svg" p-id="9703" width="200" height="200"><path d="M1022.81216 603.904c-12.11904-69.79072-117.07392-124.3392-244.79232-124.3392-8.21248 0-16.32256 0.23552-24.32512 0.67584L753.69472 225.47456l-2.36544 0c-16.46592-67.1744-119.22432-118.93248-243.61472-118.93248-124.38528 0-227.1488 51.75808-243.61472 118.93248l-2.36544 0 0 92.12416c-4.48-0.13312-8.97536-0.22016-13.5168-0.22016-130.99008 0-238.02368 57.39008-245.51936 129.74592L2.24256 447.12448l0 345.99424L4.608 793.11872c16.46592 67.1744 119.22432 118.93248 243.61472 118.93248s227.1488-51.75296 243.61472-118.93248l2.36032 0 0-5.64224c4.48 0.13824 8.97536 0.2304 13.5168 0.2304 8.21248 0 16.32256-0.24064 24.32512-0.68096l0 11.4944 2.37056 0c16.4608 67.1744 119.2192 118.93248 243.6096 118.93248s227.1488-51.75808 243.61472-118.93248L1024 798.52032 1024 603.904 1022.81216 603.904zM507.71456 149.79072c111.96416 0 202.73152 42.35264 202.73152 94.60736s-90.76736 94.61248-202.73152 94.61248c-111.96416 0-202.7264-42.35776-202.7264-94.61248S395.7504 149.79072 507.71456 149.79072zM446.32576 373.56032c-6.4-4.86912-13.33248-9.4976-20.79232-13.8496C432.92672 363.66336 439.8848 368.3072 446.32576 373.56032zM450.95424 793.11872l-4.0704 0c-18.78528 43.18208-100.5824 75.68384-198.656 75.68384s-179.87072-32.50688-198.656-75.68384L45.4912 793.11872l0-22.02112c44.32896 36.14208 118.5536 59.85792 202.73152 59.85792s158.40256-23.72096 202.73152-59.85792L450.95424 793.11872zM450.95424 712.02304l-4.0704 0c-18.78528 43.1872-100.5824 75.68384-198.656 75.68384s-179.87072-32.50176-198.656-75.68384L45.4912 712.02304l0-16.60928c44.32896 36.14208 118.5536 59.85792 202.73152 59.85792s158.40256-23.72096 202.73152-59.85792L450.95424 712.02304zM450.95424 636.3392l-4.0704 0c-18.78528 43.1872-100.5824 75.68384-198.656 75.68384s-179.87072-32.50176-198.656-75.68384L45.4912 636.3392l0-22.02112c44.32896 36.1472 118.5536 59.86304 202.73152 59.86304s158.40256-23.72096 202.73152-59.86304L450.95424 636.3392zM450.95424 555.24864l-4.0704 0c-18.78528 43.18208-100.5824 75.68384-198.656 75.68384s-179.87072-32.50688-198.656-75.68384L45.4912 555.24864l0-21.95968c44.35456 36.11136 118.58944 59.8016 202.73152 59.8016 84.13696 0 158.37696-23.69024 202.73152-59.8016L450.95424 555.24864zM248.22272 549.84704c-111.96416 0-202.73152-42.35776-202.73152-94.61248s90.76736-94.60736 202.73152-94.60736 202.73152 42.35264 202.73152 94.60736S360.18688 549.84704 248.22272 549.84704zM485.76512 419.49696c-7.02464-14.69952-18.25792-28.43136-32.96256-40.76032 17.66912 2.26304 36.01408 3.52256 54.90688 3.52256 84.14208 0 158.38208-23.69024 202.73152-59.80672l0 21.95968-4.0704 0c-18.78528 43.18208-100.58752 75.68384-198.66112 75.68384C500.28544 420.096 492.98432 419.86048 485.76512 419.49696zM706.37568 420.096c-18.78528 43.1872-100.58752 75.68384-198.66112 75.68384-4.54656 0-9.04192-0.09216-13.5168-0.2304L494.19776 463.104c4.48 0.13824 8.97536 0.24064 13.5168 0.24064 84.1728 0 158.40256-23.72096 202.73152-59.85792l0 16.60928L706.37568 420.096zM710.44608 479.17056l0 5.67808c-3.27168 0.52224-6.50752 1.09056-9.72288 1.6896C704.10752 484.1472 707.3536 481.6896 710.44608 479.17056zM532.03968 743.77216c-7.98208 0.44544-16.08704 0.69632-24.32512 0.69632-4.54656 0-9.04192-0.09728-13.5168-0.2304l0-37.85728c4.48 0.13824 8.97536 0.24064 13.5168 0.24064 8.2176 0 16.31744-0.29184 24.32512-0.73728L532.03968 743.77216zM532.03968 662.67648c-7.98208 0.44544-16.08704 0.69632-24.32512 0.69632-4.54656 0-9.04192-0.09728-13.5168-0.2304l0-37.85216c4.48 0.13824 8.97536 0.24064 13.5168 0.24064 8.2176 0 16.31744-0.29696 24.32512-0.73728L532.03968 662.67648zM540.83072 580.95616c-10.78784 0.82432-21.82656 1.32608-33.11616 1.32608-4.54656 0-9.04192-0.09728-13.5168-0.2304l0-43.25888c4.48 0.13824 8.97536 0.24064 13.5168 0.24064 26.80832 0 52.59776-2.42688 76.74368-6.87616 5.49376-4.08576 11.33056-7.7312 17.43872-10.92096C573.2864 537.69728 551.97696 558.14144 540.83072 580.95616zM980.75136 798.52544l-4.0704 0c-18.78528 43.18208-100.5824 75.68384-198.66112 75.68384-98.0736 0-179.87072-32.50688-198.66112-75.68384l-4.0704 0 0-22.02112c44.32896 36.1472 118.5536 59.85792 202.73152 59.85792s158.40256-23.71584 202.73152-59.85792L980.75136 798.52544zM980.75136 717.42976l-4.0704 0c-18.78528 43.1872-100.5824 75.68896-198.66112 75.68896-98.0736 0-179.87072-32.50688-198.66112-75.68896l-4.0704 0 0-21.95456c44.35456 36.11136 118.59456 59.8016 202.73152 59.8016 84.14208 0 158.38208-23.69024 202.73152-59.8016L980.75136 717.42976zM778.01984 712.02304c-111.96416 0-202.73152-42.35264-202.73152-94.60736s90.76736-94.61248 202.73152-94.61248 202.73152 42.35776 202.73152 94.61248S889.984 712.02304 778.01984 712.02304zM796.94336 582.28224l21.62688 0c0-20.1472-13.79328-37.02272-32.44032-41.83552l0-12.22656-21.62688 0 0 12.23168c-18.64192 4.80768-32.4352 21.6832-32.4352 41.8304s13.79328 37.0176 32.4352 41.8304l0 41.66656c-6.43584-3.74272-10.80832-10.63936-10.80832-18.62144l-21.62688 0c0 20.1472 13.79328 37.0176 32.4352 41.82528l0 17.6384 21.62688 0 0-17.63328c18.64704-4.80768 32.44032-21.6832 32.44032-41.8304 0-20.15232-13.79328-37.02272-32.44032-41.83552l0-41.66656C792.57088 567.3984 796.94336 574.29504 796.94336 582.28224zM764.50304 600.90368c-6.43584-3.74784-10.80832-10.64448-10.80832-18.62656 0-7.9872 4.37248-14.87872 10.80832-18.62656L764.50304 600.90368zM796.94336 647.15264c0 7.9872-4.37248 14.8736-10.81344 18.62144l0-37.24288C792.57088 632.27392 796.94336 639.17056 796.94336 647.15264zM488.79616 274.12992l-21.62688 0c0 20.1472 13.79328 37.02272 32.4352 41.8304l0 17.6384 21.62176 0 0-17.6384c18.64704-4.80768 32.44032-21.68832 32.44032-41.8304s-13.79328-37.02272-32.44032-41.8304l0-41.66144c6.43584 3.74272 10.80832 10.63936 10.80832 18.62656l21.632 0c0-20.15232-13.79328-37.02784-32.44032-41.8304l0-12.23168L499.6096 155.20256l0 12.23168c-18.64704 4.80768-32.4352 21.6832-32.4352 41.8304 0 20.1472 13.79328 37.0176 32.4352 41.82528l0 41.66656C493.16864 289.00864 488.79616 282.11712 488.79616 274.12992zM521.23136 255.50336c6.43584 3.74784 10.80832 10.64448 10.80832 18.62656 0 7.9872-4.37248 14.87872-10.80832 18.62656L521.23136 255.50336zM488.79616 209.25952c0-7.9872 4.37248-14.87872 10.81344-18.62656l0 37.248C493.16864 224.13824 488.79616 217.2416 488.79616 209.25952zM272.54784 420.096l21.62688 0c0-20.1472-13.79328-37.02272-32.4352-41.8304l0-12.22656-21.62688 0 0 12.22656c-18.64192 4.80768-32.4352 21.68832-32.4352 41.8304s13.79328 37.02272 32.4352 41.8304l0 41.66656c-6.43584-3.74784-10.81344-10.64448-10.81344-18.62656l-21.62176 0c0 20.1472 13.79328 37.02272 32.4352 41.8304l0 17.63328 21.62688 0 0-17.63328c18.64192-4.80256 32.4352-21.6832 32.4352-41.8304s-13.79328-37.02272-32.4352-41.8304l0-41.66656C268.17536 405.21728 272.54784 412.11392 272.54784 420.096zM240.11264 438.72256c-6.43584-3.74272-10.81344-10.63936-10.81344-18.62656 0-7.98208 4.37248-14.87872 10.81344-18.62656L240.11264 438.72256zM272.54784 484.97152c0 7.98208-4.37248 14.87872-10.81344 18.62656l0-37.248C268.17536 470.08768 272.54784 476.98432 272.54784 484.97152z" p-id="9704" fill="#F85B82"></path></svg>