<svg t="1599643262761" class="icon" viewBox="0 0 1024 1024" version="1.1" xmlns="http://www.w3.org/2000/svg" p-id="12043" width="200" height="200"><path d="M914.944 518.656c11.776 0 21.504-9.728 21.504-21.504V265.728c0-44.544-36.352-80.896-80.896-80.896H161.792c-44.544 0-80.896 36.352-80.896 80.896v491.008c0 44.544 36.352 80.896 80.896 80.896h693.76c44.544 0 80.896-36.352 80.896-80.896v-67.584c0-11.776-9.728-20.992-21.504-20.992-11.776 0-21.504 9.728-21.504 20.992V752.64c0 23.552-18.944 42.496-42.496 42.496H166.4c-23.552 0-42.496-18.944-42.496-42.496V423.424h770.56v74.24c-0.512 11.264 8.704 20.992 20.48 20.992zM123.392 270.336c0-23.552 18.944-42.496 42.496-42.496h685.056c23.552 0 42.496 18.944 42.496 42.496v27.136H122.88v-27.136z m0 110.08v-40.448h770.56v40.448H123.392z m636.928 251.904v131.072h20.48v-49.152h33.28c31.744-0.512 48.128-14.336 48.64-41.984-1.536-25.088-17.408-38.4-46.592-39.424l-55.808-0.512z m80.896 40.448c-0.512 16.384-10.24 25.088-30.208 25.6h-30.72v-49.664h30.72c19.456 0 29.696 8.192 30.208 24.064zM727.04 763.392v-131.072h-19.968v131.072h19.968z m-484.352-34.816v-77.824H164.864v77.824h77.824z m380.416 17.408c-1.024-1.536-14.848-39.424-41.984-113.664h-21.504l52.224 131.072h22.528l52.224-131.072h-22.528c-26.624 73.728-39.936 111.616-39.936 113.664h-1.024z" fill="#F85B82" p-id="12044"></path><path d="M551.936 606.208h311.808v163.328h-311.808z" fill="#F85B82" p-id="12045"></path><path d="M566.272 584.192v-1.536h12.8l27.136 86.528c5.632 18.432 9.728 32.256 15.36 50.688h1.024c6.144-18.432 10.24-32.256 15.872-50.688l26.624-86.528h12.8l-49.152 150.528h-13.824l-49.152-150.016 0.512 1.024z" fill="#F85B82" p-id="12046"></path><path d="M636.416 743.424h-28.672l-51.712-157.184 7.168-2.048h-7.168v-11.776h30.208l29.184 93.696c2.048 6.144 3.584 11.776 5.12 17.408 0.512 1.024 0.512 2.56 1.024 3.584 0-0.512 0.512-1.024 0.512-1.536 2.048-6.144 3.584-12.288 6.144-18.944l29.184-93.696h34.304l-55.296 170.496zM720.896 582.656h12.288v150.528h-12.288v-150.528z" fill="#F85B82" p-id="12047"></path><path d="M710.656 572.416h32.768v171.008h-32.768z" fill="#F85B82" p-id="12048"></path><path d="M777.216 582.656h38.912c34.304 0 54.784 11.264 54.784 42.496 0 30.208-20.48 44.544-54.272 44.544h-27.648v63.488h-12.288v-150.528z m37.376 76.8c29.696 0 44.032-10.24 44.032-34.304 0-24.576-14.848-32.256-45.056-32.256h-24.064v66.56h25.088z" fill="#F85B82" p-id="12049"></path><path d="M799.744 743.424h-32.768v-171.008h49.152c43.52 0 65.024 17.92 65.024 52.736 0 34.816-23.552 54.784-64.512 54.784h-17.408v63.488z m0-94.208h14.848c31.232 0 33.792-11.776 33.792-24.064 0-12.8-2.56-22.016-34.816-22.016h-13.824v46.08z" fill="#F85B82" p-id="12050"></path><path d="M565.76 572.416h-9.728l-40.96 1.024 47.104 19.456z" fill="#F85B82" p-id="12051"></path><path d="M234.496 743.936H170.496c-9.728 0-17.92-8.192-17.92-17.92v-64c0-9.728 8.192-17.92 17.92-17.92h64c9.728 0 17.92 8.192 17.92 17.92v64c0 9.728-8.192 17.92-17.92 17.92z" fill="#F85B82" p-id="12052"></path></svg>