<svg t="1599637582634" class="icon" viewBox="0 0 1024 1024" version="1.1" xmlns="http://www.w3.org/2000/svg" p-id="4868" width="200" height="200"><path d="M710.2 0H334.7c-46.9 0-85.4 38.5-85.4 85.3v853.2c0 47 38.4 85.5 85.4 85.5h375.5c46.8 0 85.3-38.6 85.3-85.5V85.3c0-46.8-38.4-85.3-85.3-85.3zM471.3 68.3h102.3c9.6 0 17.1 7.6 17.1 17 0 9.5-7.5 17.1-17.1 17.1H471.3c-9.5 0-17-7.6-17-17.1 0-9.3 7.5-17 17-17z m51.2 921.4c-28.3 0-51.2-22.9-51.2-51.2 0-28.4 22.9-51.2 51.2-51.2s51.2 22.8 51.2 51.2c-0.2 28.2-22.9 51.2-51.2 51.2z m211.9-136.5H293.6V170.6h457.8v682.6" fill="#2e9881" p-id="4869"></path></svg>